# xmcd
# 
# Track frame offsets:
#     150
#     13098
#     27014
#     39883
#     52830
#     65489
#     80333
#     94647
#     107025
#     122354
#     134526
#     148086
#     162750
#     176563
#     189302
#     202028
# 
# Disc length: 2869
# 
# Revision: 0
# Processed by: cddbd v1.5.2PL0 Copyright (c) Steve Scherf et al.
# Submitted via: fre:ac v1.0.17
# 
DISCID=cb0b3310
DTITLE=Big Bill Broonzy - Mississippi River Blues
DYEAR=2000
DGENRE=Blues
TTITLE0=Too Too Train Blues  [1932]
TTITLE1=Worrying You Out Of My Mind  [1932]
TTITLE2=How You Want It Done  [1932]
TTITLE3=Bull Cow Blues  [1932]
TTITLE4=Long Tall Mama  [1932]
TTITLE5=Good Jelly  [1935]
TTITLE6=Rising Sun Shine On  [1935]
TTITLE7=Good Liquor Gonna Carry Me Down  [1935]
TTITLE8=Friendless Blues  [1934]
TTITLE9=Mississippi River Blues  [1934]
TTITLE10=Come Home Early  [1937]
TTITLE11=Southern Flood Blues  [1937]
TTITLE12=Horny Frog  [1937]
TTITLE13=It's Your Time Now  [1938]
TTITLE14=W.P.A. Blues  [1938]
TTITLE15=Big Billy Blues  [1946]
EXTD=Year: 2000 Id3g:   0 YEAR: 2000
EXTT0=
EXTT1=
EXTT2=
EXTT3=
EXTT4=
EXTT5=
EXTT6=
EXTT7=
EXTT8=
EXTT9=
EXTT10=
EXTT11=
EXTT12=
EXTT13=
EXTT14=
EXTT15=
PLAYORDER=
